<svg width="106" height="106" xmlns="http://www.w3.org/2000/svg" xmlns:xlink="http://www.w3.org/1999/xlink"><defs><circle id="a" cx="53" cy="53" r="53"/></defs><g fill="none" fill-rule="evenodd"><use fill="#36536B" xlink:href="#a"/><path d="M69.406 44.719c.648 0 1.172.524 1.172 1.172v24.765h1.25a1.171 1.171 0 110 2.344H34.172a1.171 1.171 0 110-2.344h1.25V57.61c0-.647.524-1.172 1.172-1.172h4.687c.648 0 1.172.525 1.172 1.172v13.047h2.344v-8.36c0-.647.524-1.171 1.172-1.171h4.687c.648 0 1.172.524 1.172 1.172v8.36h2.344V52.921c0-.648.524-1.172 1.172-1.172h4.687c.648 0 1.172.524 1.172 1.172v17.734h2.344V45.891c0-.648.524-1.172 1.172-1.172zM67.062 33a3.52 3.52 0 013.516 3.516 3.52 3.52 0 01-3.516 3.515c-.72 0-1.388-.219-1.946-.591l-4.088 3.066c.103.33.175.676.175 1.04a3.52 3.52 0 01-3.516 3.517 3.473 3.473 0 01-1.506-.353l-4.705 4.706c.22.458.352.965.352 1.506a3.52 3.52 0 01-3.516 3.516 3.52 3.52 0 01-3.515-3.516c0-.146.026-.285.043-.426l-3.469-1.734a3.498 3.498 0 01-2.434.988 3.52 3.52 0 01-3.515-3.516 3.52 3.52 0 013.516-3.515 3.52 3.52 0 013.515 3.515c0 .146-.026.285-.043.426l3.469 1.735a3.498 3.498 0 012.434-.989c.54 0 1.047.133 1.506.353l4.705-4.706a3.473 3.473 0 01-.352-1.506 3.52 3.52 0 013.516-3.516c.72 0 1.388.22 1.946.592l4.088-3.066a3.463 3.463 0 01-.175-1.041A3.52 3.52 0 0167.063 33z" fill="#FFF" fill-rule="nonzero"/></g></svg>